HIERARCHY
ROOT mixamorig:Hips
{
	OFFSET 0.000000 77.627144 7.190781
	CHANNELS 6 Xposition Yposition Zposition Xrotation Yrotation Zrotation
	JOINT mixamorig:Spine
	{
		OFFSET 0.000000 14.685707 -1.734714
		CHANNELS 3 Xrotation Yrotation Zrotation
		JOINT mixamorig:Spine1
		{
			OFFSET 0.000000 17.133331 -2.023833
			CHANNELS 3 Xrotation Yrotation Zrotation
			JOINT mixamorig:Spine2
			{
				OFFSET 0.000000 19.580948 -2.312953
				CHANNELS 3 Xrotation Yrotation Zrotation
				JOINT mixamorig:Neck
				{
					OFFSET 0.000000 22.028564 -2.602070
					CHANNELS 3 Xrotation Yrotation Zrotation
					JOINT mixamorig:Head
					{
						OFFSET 0.000000 7.772293 1.167654
						CHANNELS 3 Xrotation Yrotation Zrotation
						JOINT mixamorig:HeadTop_End
						{
							OFFSET 0.000000 26.518158 3.983897
							CHANNELS 3 Xrotation Yrotation Zrotation
							End Site
							{
								OFFSET 0.000000 26.815750 0.000000
							}
						}
					}
				}
				JOINT mixamorig:LeftShoulder
				{
					OFFSET 11.646637 18.513367 -2.583829
					CHANNELS 3 Xrotation Yrotation Zrotation
					JOINT mixamorig:LeftArm
					{
						OFFSET 23.494797 -6.787735 0.036483
						CHANNELS 3 Xrotation Yrotation Zrotation
						JOINT mixamorig:LeftForeArm
						{
							OFFSET 22.628841 -2.236465 0.895561
							CHANNELS 3 Xrotation Yrotation Zrotation
							JOINT mixamorig:LeftHand
							{
								OFFSET 32.235813 0.214081 0.341628
								CHANNELS 3 Xrotation Yrotation Zrotation
								JOINT mixamorig:LeftHandThumb1
								{
									OFFSET 4.043732 -2.301453 4.675424
									CHANNELS 3 Xrotation Yrotation Zrotation
									JOINT mixamorig:LeftHandThumb2
									{
										OFFSET 3.235001 -1.841141 3.740334
										CHANNELS 3 Xrotation Yrotation Zrotation
										JOINT mixamorig:LeftHandThumb3
										{
											OFFSET 4.136284 -1.355438 2.884997
											CHANNELS 3 Xrotation Yrotation Zrotation
											JOINT mixamorig:LeftHandThumb4
											{
												OFFSET 3.443222 -1.440781 1.895251
												CHANNELS 3 Xrotation Yrotation Zrotation
												End Site
												{
													OFFSET 3.082619 -1.455811 2.429330
												}
											}
										}
									}
								}
								JOINT mixamorig:LeftHandIndex1
								{
									OFFSET 12.534279 0.552322 5.370454
									CHANNELS 3 Xrotation Yrotation Zrotation
									JOINT mixamorig:LeftHandIndex2
									{
										OFFSET 4.462021 -0.042068 -0.222766
										CHANNELS 3 Xrotation Yrotation Zrotation
										JOINT mixamorig:LeftHandIndex3
										{
											OFFSET 4.426414 -0.140015 -0.221126
											CHANNELS 3 Xrotation Yrotation Zrotation
											JOINT mixamorig:LeftHandIndex4
											{
												OFFSET 3.584976 -0.033737 -0.180877
												CHANNELS 3 Xrotation Yrotation Zrotation
												End Site
												{
													OFFSET 3.584984 -0.033707 -0.180676
												}
											}
										}
									}
								}
								JOINT mixamorig:LeftHandMiddle1
								{
									OFFSET 12.067444 0.830978 1.411757
									CHANNELS 3 Xrotation Yrotation Zrotation
									JOINT mixamorig:LeftHandMiddle2
									{
										OFFSET 5.488625 0.110443 -0.140360
										CHANNELS 3 Xrotation Yrotation Zrotation
										JOINT mixamorig:LeftHandMiddle3
										{
											OFFSET 5.193268 -0.285706 -0.132956
											CHANNELS 3 Xrotation Yrotation Zrotation
											JOINT mixamorig:LeftHandMiddle4
											{
												OFFSET 4.443779 -0.316895 -0.113542
												CHANNELS 3 Xrotation Yrotation Zrotation
												End Site
												{
													OFFSET 4.443962 -0.316620 -0.107084
												}
											}
										}
									}
								}
								JOINT mixamorig:LeftHandRing1
								{
									OFFSET 12.202324 0.602158 -2.428782
									CHANNELS 3 Xrotation Yrotation Zrotation
									JOINT mixamorig:LeftHandRing2
									{
										OFFSET 4.681709 0.293594 -0.070412
										CHANNELS 3 Xrotation Yrotation Zrotation
										JOINT mixamorig:LeftHandRing3
										{
											OFFSET 4.517784 0.001785 -0.067170
											CHANNELS 3 Xrotation Yrotation Zrotation
											JOINT mixamorig:LeftHandRing4
											{
												OFFSET 3.536186 -0.473984 -0.050865
												CHANNELS 3 Xrotation Yrotation Zrotation
												End Site
												{
													OFFSET 3.536438 -0.473450 -0.036327
												}
											}
										}
									}
								}
								JOINT mixamorig:LeftHandPinky1
								{
									OFFSET 11.261032 -0.021225 -5.740205
									CHANNELS 3 Xrotation Yrotation Zrotation
									JOINT mixamorig:LeftHandPinky2
									{
										OFFSET 4.446136 0.226913 -0.056313
										CHANNELS 3 Xrotation Yrotation Zrotation
										JOINT mixamorig:LeftHandPinky3
										{
											OFFSET 3.536148 0.035980 -0.044635
											CHANNELS 3 Xrotation Yrotation Zrotation
											JOINT mixamorig:LeftHandPinky4
											{
												OFFSET 2.822449 0.069366 -0.035670
												CHANNELS 3 Xrotation Yrotation Zrotation
												End Site
												{
													OFFSET 2.822449 0.069397 -0.035034
												}
											}
										}
									}
								}
							}
						}
					}
				}
				JOINT mixamorig:RightShoulder
				{
					OFFSET -11.646637 18.513367 -2.620312
					CHANNELS 3 Xrotation Yrotation Zrotation
					JOINT mixamorig:RightArm
					{
						OFFSET -23.494804 -6.787735 -0.036485
						CHANNELS 3 Xrotation Yrotation Zrotation
						JOINT mixamorig:RightForeArm
						{
							OFFSET -22.628826 -2.236481 0.960591
							CHANNELS 3 Xrotation Yrotation Zrotation
							JOINT mixamorig:RightHand
							{
								OFFSET -32.235806 0.214096 0.317908
								CHANNELS 3 Xrotation Yrotation Zrotation
								JOINT mixamorig:RightHandThumb1
								{
									OFFSET -4.056908 -2.304855 4.721249
									CHANNELS 3 Xrotation Yrotation Zrotation
									JOINT mixamorig:RightHandThumb2
									{
										OFFSET -3.245529 -1.843887 3.777003
										CHANNELS 3 Xrotation Yrotation Zrotation
										JOINT mixamorig:RightHandThumb3
										{
											OFFSET -4.153908 -1.359879 2.907515
											CHANNELS 3 Xrotation Yrotation Zrotation
											JOINT mixamorig:RightHandThumb4
											{
												OFFSET -3.491310 -1.375549 1.529044
												CHANNELS 3 Xrotation Yrotation Zrotation
												End Site
												{
													OFFSET -3.035126 -1.400162 2.290608
												}
											}
										}
									}
								}
								JOINT mixamorig:RightHandIndex1
								{
									OFFSET -12.331047 0.757294 5.317495
									CHANNELS 3 Xrotation Yrotation Zrotation
									JOINT mixamorig:RightHandIndex2
									{
										OFFSET -4.758568 -0.224289 -0.035605
										CHANNELS 3 Xrotation Yrotation Zrotation
										JOINT mixamorig:RightHandIndex3
										{
											OFFSET -4.415932 -0.181503 -0.033052
											CHANNELS 3 Xrotation Yrotation Zrotation
											JOINT mixamorig:RightHandIndex4
											{
												OFFSET -3.678474 0.414856 -0.027373
												CHANNELS 3 Xrotation Yrotation Zrotation
												End Site
												{
													OFFSET -3.678375 0.414001 -0.046045
												}
											}
										}
									}
								}
								JOINT mixamorig:RightHandMiddle1
								{
									OFFSET -12.051239 0.663742 1.548264
									CHANNELS 3 Xrotation Yrotation Zrotation
									JOINT mixamorig:RightHandMiddle2
									{
										OFFSET -5.374817 0.301971 -0.166537
										CHANNELS 3 Xrotation Yrotation Zrotation
										JOINT mixamorig:RightHandMiddle3
										{
											OFFSET -5.310471 -0.301758 -0.164593
											CHANNELS 3 Xrotation Yrotation Zrotation
											JOINT mixamorig:RightHandMiddle4
											{
												OFFSET -4.485832 -0.342514 -0.139207
												CHANNELS 3 Xrotation Yrotation Zrotation
												End Site
												{
													OFFSET -4.486198 -0.342010 -0.127963
												}
											}
										}
									}
								}
								JOINT mixamorig:RightHandRing1
								{
									OFFSET -12.195183 0.742325 -2.381488
									CHANNELS 3 Xrotation Yrotation Zrotation
									JOINT mixamorig:RightHandRing2
									{
										OFFSET -4.583191 0.034424 -0.012763
										CHANNELS 3 Xrotation Yrotation Zrotation
										JOINT mixamorig:RightHandRing3
										{
											OFFSET -4.612793 0.026199 -0.012632
											CHANNELS 3 Xrotation Yrotation Zrotation
											JOINT mixamorig:RightHandRing4
											{
												OFFSET -3.314957 -0.541855 -0.006643
												CHANNELS 3 Xrotation Yrotation Zrotation
												End Site
												{
													OFFSET -3.315063 -0.541092 0.010116
												}
											}
										}
									}
								}
								JOINT mixamorig:RightHandPinky1
								{
									OFFSET -11.332825 -0.054398 -5.574547
									CHANNELS 3 Xrotation Yrotation Zrotation
									JOINT mixamorig:RightHandPinky2
									{
										OFFSET -4.462639 0.300003 -0.206312
										CHANNELS 3 Xrotation Yrotation Zrotation
										JOINT mixamorig:RightHandPinky3
										{
											OFFSET -3.493774 0.049591 -0.161451
											CHANNELS 3 Xrotation Yrotation Zrotation
											JOINT mixamorig:RightHandPinky4
											{
												OFFSET -2.793701 0.056946 -0.129098
												CHANNELS 3 Xrotation Yrotation Zrotation
												End Site
												{
													OFFSET -2.793793 0.057053 -0.126857
												}
											}
										}
									}
								}
							}
						}
					}
				}
			}
		}
	}
	JOINT mixamorig:LeftUpLeg
	{
		OFFSET 13.580879 -8.149223 -1.796077
		CHANNELS 3 Xrotation Yrotation Zrotation
		JOINT mixamorig:LeftLeg
		{
			OFFSET 3.676140 -35.802425 -2.676071
			CHANNELS 3 Xrotation Yrotation Zrotation
			JOINT mixamorig:LeftFoot
			{
				OFFSET -0.369089 -26.709160 -2.057140
				CHANNELS 3 Xrotation Yrotation Zrotation
				JOINT mixamorig:LeftToeBase
				{
					OFFSET -1.192477 -6.581660 13.403662
					CHANNELS 3 Xrotation Yrotation Zrotation
					JOINT mixamorig:LeftToe_End
					{
						OFFSET -0.351336 -0.163913 5.937977
						CHANNELS 3 Xrotation Yrotation Zrotation
						End Site
						{
							OFFSET -0.351338 -0.163913 5.937977
						}
					}
				}
			}
		}
	}
	JOINT mixamorig:RightUpLeg
	{
		OFFSET -13.580879 -8.149223 -2.255285
		CHANNELS 3 Xrotation Yrotation Zrotation
		JOINT mixamorig:RightLeg
		{
			OFFSET -3.676140 -35.802425 -2.316821
			CHANNELS 3 Xrotation Yrotation Zrotation
			JOINT mixamorig:RightFoot
			{
				OFFSET 0.369059 -26.709040 -2.090143
				CHANNELS 3 Xrotation Yrotation Zrotation
				JOINT mixamorig:RightToeBase
				{
					OFFSET 1.192393 -6.582436 13.372205
					CHANNELS 3 Xrotation Yrotation Zrotation
					JOINT mixamorig:RightToe_End
					{
						OFFSET 0.351307 -0.164255 5.913618
						CHANNELS 3 Xrotation Yrotation Zrotation
						End Site
						{
							OFFSET 0.351309 -0.164255 5.913618
						}
					}
				}
			}
		}
	}
}
MOTION
Frames: 5
Frame Time: 0.016667
0.026949 76.509720 1.869627 -3.895611 -6.347979 -2.094682 7.970167 2.139387 2.060154 -0.160744 0.299257 -1.144697 -0.155815 0.284066 -1.149824 -0.329487 0.360288 0.668018 3.521241 2.676857 0.478100 0.000000 0.000000 0.000000 0.311671 -7.670489 2.453770 47.623453 -36.685561 -44.499861 -7.105839 -52.173325 -9.498020 -3.919170 5.401741 -4.570857 19.950938 21.700541 14.357363 -15.028458 6.168156 -13.549304 -4.844265 -4.083315 5.619833 -0.000001 0.000000 -0.000003 -0.527452 -7.022933 -25.760359 -0.226856 0.496199 -5.187942 -0.346472 0.483279 -7.725862 0.000002 -0.000000 0.000003 0.131856 -5.655105 -29.018906 -0.119926 0.883452 -7.551049 -0.127426 0.766801 -9.253790 -0.000001 0.000002 -0.000002 0.590665 -4.928558 -34.861033 -0.094976 1.220088 -13.123426 0.036440 1.106201 -7.476355 0.000000 -0.000002 0.000002 3.181694 -1.163698 -38.702625 0.151942 -2.655214 -17.216909 -0.029790 1.417567 -20.065062 -0.000000 0.000003 -0.000000 1.779436 19.714136 1.170644 51.810144 25.714569 42.101733 -16.707252 71.385353 18.058516 -10.511657 -10.369876 8.625398 -1.176135 -12.281129 -11.371923 9.582539 -14.746826 14.345474 -6.083596 10.687325 -4.186507 0.000001 0.000000 0.000004 0.272812 5.721182 24.124944 0.115614 -1.230518 18.429189 0.026570 -1.157523 25.367058 -0.000001 0.000001 0.000002 -0.002317 7.466397 24.504431 -0.266616 -1.204156 12.978974 -0.283383 -1.096074 16.372358 0.000002 0.000003 0.000001 0.424965 5.897796 21.724571 0.155447 -1.267798 19.576791 0.162074 -1.194177 8.392115 0.000000 -0.000001 0.000001 -0.394857 7.851796 30.956808 -0.613571 -1.190122 15.761913 -0.685798 -1.177833 18.409486 0.000002 0.000002 -0.000000 -3.699062 2.015927 6.644814 22.833225 9.445308 -7.652503 -14.369321 20.252986 1.177388 -0.003791 -0.000014 0.000004 0.000000 -0.000003 -0.000001 -6.168702 2.132098 2.104754 21.170708 -10.107700 -0.530950 -10.776437 -6.208859 0.848302 -0.027994 0.000009 -0.000003 0.000001 0.000002 0.000001 
0.030990 76.503357 1.972350 -3.766323 -6.257199 -2.088465 7.701163 2.061796 2.034069 -0.099584 0.287703 -1.099779 -0.094814 0.273134 -1.104310 -0.472986 0.370652 0.694946 3.290754 2.837016 0.538676 -0.000000 0.000000 -0.000000 0.309841 -7.643432 2.159127 46.580425 -35.721189 -45.163806 -6.967324 -51.637740 -9.389809 -4.924826 5.874322 -4.501800 19.950955 21.700541 14.357385 -15.028462 6.168155 -13.549305 -4.844268 -4.083315 5.619834 -0.000003 0.000001 0.000000 -0.523427 -7.053249 -25.420590 -0.233770 0.509775 -5.358707 -0.353120 0.497204 -7.896625 0.000000 0.000002 0.000004 0.129834 -5.667936 -28.854438 -0.123141 0.904762 -7.830897 -0.129868 0.790320 -9.562703 0.000002 -0.000001 -0.000001 0.592168 -4.924298 -34.921903 -0.094024 1.253581 -13.580851 0.038689 1.140298 -7.956362 0.000000 0.000003 0.000001 3.205281 -1.157263 -38.962380 0.157419 -2.611211 -17.817134 -0.022738 1.461437 -20.665704 -0.000000 0.000003 -0.000001 1.797927 19.667183 1.192803 50.853856 25.208025 42.463453 -16.233505 70.898374 17.610929 -11.621411 -10.306609 7.601378 -1.176132 -12.281136 -11.371921 9.582542 -14.746828 14.345474 -6.083590 10.687325 -4.186507 -0.000000 -0.000001 0.000002 0.260366 5.754617 23.606341 0.114719 -1.227040 18.377235 0.026163 -1.155761 25.341107 -0.000001 -0.000004 0.000003 -0.000282 7.487709 24.195202 -0.266690 -1.204535 12.984462 -0.283657 -1.098212 16.405105 0.000001 0.000003 0.000002 0.421413 5.908193 21.556429 0.158487 -1.277819 19.737826 0.164326 -1.202054 8.518614 0.000003 0.000001 -0.000003 -0.393905 7.857336 30.883704 -0.624071 -1.215025 16.121606 -0.690548 -1.190515 18.589331 0.000001 -0.000001 0.000003 -3.871972 2.482499 6.433472 22.838481 9.447730 -6.887897 -14.235975 20.255326 0.375210 -0.003686 -0.000008 0.000003 0.000000 -0.000001 -0.000001 -6.337937 1.569071 2.045692 21.470990 -10.097125 -0.586508 -11.030211 -5.735464 0.610033 -0.208758 -0.000001 -0.000004 0.000001 0.000001 0.000001 
0.039160 76.492805 2.082281 -3.621635 -6.108094 -2.041046 7.406287 1.957744 2.005032 -0.034164 0.272660 -1.059706 -0.029642 0.258723 -1.063591 -0.615165 0.378879 0.718460 3.082977 2.987701 0.596497 0.000001 0.000000 0.000000 0.307504 -7.614709 1.868281 45.565408 -34.797024 -45.750875 -6.837954 -51.125639 -9.289465 -5.505606 6.362410 -4.388918 19.950960 21.700534 14.357353 -15.028455 6.168155 -13.549307 -4.844263 -4.083314 5.619836 -0.000001 0.000000 -0.000003 -0.518824 -7.086273 -25.050016 -0.238530 0.519213 -5.477156 -0.357731 0.506884 -8.015066 -0.000001 -0.000001 -0.000001 0.127432 -5.683624 -28.653432 -0.125603 0.921731 -8.053407 -0.131768 0.809470 -9.813641 0.000001 -0.000000 0.000005 0.592308 -4.923958 -34.926790 -0.093014 1.282019 -13.969520 0.040852 1.169505 -8.367743 0.000002 0.000003 0.000001 3.221675 -1.152871 -39.142574 0.162581 -2.572799 -18.341845 -0.016193 1.499722 -21.190817 -0.000000 -0.000000 0.000001 1.816100 19.618793 1.198947 49.912827 24.731589 42.772434 -15.794427 70.423533 17.197318 -12.477574 -10.304256 6.626247 -1.176111 -12.281131 -11.371923 9.582540 -14.746828 14.345477 -6.083591 10.687330 -4.186505 0.000001 0.000000 0.000005 0.247932 5.789026 23.075087 0.113144 -1.220934 18.285038 0.025450 -1.152610 25.295006 -0.000002 -0.000000 0.000001 0.002018 7.510578 23.863397 -0.266204 -1.202097 12.947111 -0.283702 -1.098557 16.410465 0.000001 0.000005 0.000001 0.417157 5.920823 21.352223 0.160565 -1.284617 19.846935 0.166020 -1.207899 8.612839 0.000001 -0.000002 0.000001 -0.392185 7.867152 30.753944 -0.632654 -1.235678 16.419551 -0.694460 -1.201052 18.738334 0.000002 0.000005 -0.000001 -4.018358 2.901369 6.183877 22.736247 9.434615 -6.151586 -14.051124 20.137396 -0.414312 -0.003453 -0.000012 -0.000002 0.000000 0.000000 -0.000001 -6.542301 0.953825 1.907243 21.872445 -9.736774 -0.553310 -11.364593 -5.593921 0.250337 -0.406071 -0.000010 0.000004 0.000001 0.000004 0.000000 
0.052358 76.476547 2.194426 -3.485734 -5.927233 -1.971710 7.104119 1.828552 1.971984 0.032605 0.254362 -1.025851 0.036793 0.241035 -1.029074 -0.756163 0.384979 0.738840 2.896232 3.129299 0.635409 0.000001 0.000000 -0.000000 0.304840 -7.583596 1.584288 44.580372 -33.910714 -46.265799 -6.718418 -50.642014 -9.197382 -5.609937 6.827776 -4.233510 19.950938 21.700558 14.357365 -15.028460 6.168153 -13.549303 -4.844263 -4.083316 5.619830 0.000002 0.000000 -0.000003 -0.514167 -7.118251 -24.690869 -0.241496 0.525113 -5.551220 -0.360591 0.512933 -8.089131 0.000001 0.000003 -0.000002 0.125036 -5.699607 -28.448421 -0.127400 0.934343 -8.218826 -0.133163 0.824005 -10.004382 -0.000001 0.000001 0.000005 0.591533 -4.926098 -34.896133 -0.092068 1.304595 -14.278055 0.042734 1.192844 -8.696914 0.000000 0.000002 0.000001 3.231927 -1.150139 -39.255259 0.167064 -2.541394 -18.771399 -0.010567 1.531031 -21.620703 -0.000000 0.000002 -0.000001 1.833793 19.569003 1.189220 48.983709 24.283030 43.037428 -15.388944 69.963431 16.816520 -13.053601 -10.363694 5.723269 -1.176126 -12.281120 -11.371930 9.582541 -14.746828 14.345477 -6.083593 10.687332 -4.186508 -0.000001 0.000000 0.000004 0.236424 5.821768 22.570871 0.111164 -1.213171 18.168423 0.024564 -1.148661 25.236695 0.000001 -0.000001 0.000002 0.004425 7.533022 23.537459 -0.265283 -1.197712 12.879269 -0.283572 -1.097496 16.394387 -0.000003 -0.000003 0.000004 0.412670 5.934292 21.134673 0.161749 -1.288409 19.908074 0.167142 -1.211767 8.675315 -0.000001 0.000000 -0.000001 -0.389955 7.879575 30.589812 -0.639152 -1.251617 16.648566 -0.697453 -1.209111 18.852818 0.000000 -0.000001 -0.000000 -4.229272 3.253487 5.931808 22.814695 9.448310 -5.518870 -13.983360 19.887913 -0.968553 -0.003199 0.000015 0.000003 0.000000 -0.000002 -0.000000 -6.757815 0.336964 1.708631 22.357569 -9.322909 -0.438127 -11.760538 -5.522305 -0.167513 -0.616476 -0.000001 0.000002 0.000001 0.000001 0.000000 
0.071945 76.452454 2.303492 -3.383045 -5.745857 -1.901442 6.814356 1.678806 1.934444 0.097636 0.233455 -0.998938 0.101430 0.220684 -1.001524 -0.896184 0.388968 0.756208 2.726367 3.262042 0.638726 0.000000 0.000000 -0.000000 0.302036 -7.549437 1.309466 43.612995 -33.069218 -46.716650 -6.609274 -50.191529 -9.113920 -5.242224 7.238679 -4.041714 19.950954 21.700542 14.357355 -15.028460 6.168159 -13.549305 -4.844264 -4.083315 5.619833 0.000001 -0.000003 -0.000003 -0.509966 -7.145814 -24.381094 -0.243167 0.528411 -5.592524 -0.362197 0.516316 -8.130433 0.000000 0.000001 0.000001 0.122987 -5.713563 -28.269813 -0.128627 0.943046 -8.332970 -0.134110 0.834271 -10.138846 -0.000003 0.000003 0.000005 0.590447 -4.929167 -34.852335 -0.091316 1.321088 -14.503702 0.044216 1.210046 -8.939288 0.000001 0.000003 -0.000001 3.237657 -1.148634 -39.318093 0.170609 -2.517653 -19.096661 -0.006157 1.554704 -21.946217 0.000001 0.000001 -0.000000 1.850808 19.517873 1.164204 48.077521 23.874754 43.250821 -15.015986 69.520759 16.467313 -13.351476 -10.476244 4.909685 -1.176155 -12.281104 -11.371918 9.582544 -14.746831 14.345477 -6.083592 10.687328 -4.186507 -0.000001 0.000002 0.000005 0.226534 5.850617 22.127897 0.109074 -1.204923 18.044375 0.023616 -1.144418 25.174692 -0.000002 -0.000001 -0.000001 0.006667 7.553285 23.243156 -0.264162 -1.192275 12.795350 -0.283317 -1.095544 16.364250 0.000001 0.000001 0.000003 0.408380 5.947228 20.926059 0.162148 -1.289735 19.929449 0.167763 -1.213893 8.709587 -0.000001 -0.000000 -0.000004 -0.387595 7.892781 30.415215 -0.643669 -1.262739 16.808414 -0.699520 -1.214784 18.932760 0.000002 0.000001 0.000001 -4.491815 3.542615 5.695451 23.119540 9.485250 -4.988789 -14.067242 19.568220 -1.304670 -0.002945 -0.000007 0.000001 0.000000 -0.000000 -0.000001 -6.966874 -0.231653 1.479738 22.913741 -8.847721 -0.247988 -12.202350 -5.554953 -0.645286 -0.833670 -0.000005 0.000001 0.000001 0.000001 0.000000 
